<?xml version="1.0" encoding="iso-8859-1"?>
<!-- Generator: Adobe Illustrator 19.0.0, SVG Export Plug-In . SVG Version: 6.00 Build 0)  -->
<svg version="1.1" id="Layer_1" xmlns="http://www.w3.org/2000/svg" xmlns:xlink="http://www.w3.org/1999/xlink" x="0px" y="0px"
	 viewBox="0 0 512 512" style="enable-background:new 0 0 512 512;" xml:space="preserve">
<g>
	<g>
		<path d="M207.557,290.539c-4.57,0-8.275,3.705-8.275,8.275v23.02c0,4.57,3.705,8.275,8.275,8.275c4.57,0,8.275-3.705,8.275-8.275
			v-23.02C215.832,294.244,212.127,290.539,207.557,290.539z"/>
	</g>
</g>
<g>
	<g>
		<path d="M304.243,290.539c-4.57,0-8.275,3.705-8.275,8.275v23.02c0,4.57,3.705,8.275,8.275,8.275s8.275-3.705,8.275-8.275v-23.02
			C312.517,294.244,308.812,290.539,304.243,290.539z"/>
	</g>
</g>
<g>
	<g>
		<path d="M511.802,329.247c-12.55-56.474-44.169-84.811-68.484-98.637c-0.963-0.547-1.919-1.065-2.873-1.577
			c20.33-9.547,34.445-30.209,34.445-54.114c0-32.949-26.806-59.755-59.755-59.755c-1.659,0-3.312,0.068-4.954,0.204
			c1.094-4.555,1.656-9.242,1.656-13.958c0-4.57-3.705-8.275-8.275-8.275s-8.275,3.705-8.275,8.275
			c0,7.458-1.942,14.82-5.616,21.291c-1.723,3.034-1.357,6.823,0.914,9.471c2.269,2.648,5.96,3.588,9.22,2.35
			c4.907-1.863,10.064-2.809,15.33-2.809c23.824,0,43.206,19.382,43.206,43.206c0,23.824-19.382,43.206-43.206,43.206
			c-17.329,0-32.93-10.3-39.745-26.24c-1.566-3.663-5.52-5.69-9.406-4.825c-2.21,0.492-4.458,0.741-6.684,0.741
			c-11.11,0-21.362-6.049-26.754-15.788c-1.688-3.048-5.103-4.711-8.543-4.163c-3.107,0.495-6.246,0.18-9.125-0.888
			c-3.727-1.381-7.908,0.083-9.96,3.485c-10.468,17.351-28.791,27.71-49.016,27.71c-20.174,0-38.473-10.317-48.952-27.598
			c-2.032-3.352-6.139-4.819-9.835-3.511c-2.897,1.026-5.982,1.308-9.149,0.752c-3.48-0.612-6.969,1.06-8.676,4.157
			c-5.384,9.773-15.649,15.843-26.787,15.843c-2.224,0-4.473-0.249-6.683-0.741c-3.888-0.866-7.841,1.161-9.406,4.825
			c-6.815,15.94-22.416,26.24-39.745,26.24c-23.824,0-43.206-19.382-43.206-43.206s19.382-43.206,43.206-43.206
			c5.265,0,10.423,0.944,15.33,2.809c3.26,1.238,6.951,0.299,9.22-2.35c2.271-2.649,2.636-6.438,0.914-9.471
			c-3.674-6.47-5.616-13.833-5.616-21.291c0-23.824,19.382-43.206,43.206-43.206c9.555,0,18.611,3.057,26.187,8.843
			c2.086,1.593,4.805,2.102,7.327,1.37c2.521-0.731,4.545-2.616,5.456-5.079c8.806-23.832,31.799-39.842,57.211-39.842
			c25.414,0,48.405,16.012,57.21,39.842c0.91,2.463,2.935,4.347,5.456,5.079c2.522,0.733,5.241,0.224,7.327-1.37
			c7.577-5.784,16.632-8.843,26.187-8.843c13.506,0,25.989,6.145,34.247,16.859c2.789,3.619,7.984,4.293,11.605,1.503
			c3.62-2.79,4.292-7.986,1.503-11.605c-11.416-14.811-28.675-23.306-47.355-23.306c-9.744,0-19.114,2.3-27.567,6.718
			C311.25,23.24,284.807,6.945,255.902,6.945s-55.348,16.294-68.615,41.427c-8.453-4.416-17.823-6.718-27.568-6.718
			c-32.949,0-59.755,26.806-59.755,59.755c0,4.714,0.562,9.402,1.656,13.958c-1.642-0.136-3.294-0.204-4.955-0.204
			c-32.949,0-59.755,26.806-59.755,59.755c0,23.953,14.173,44.647,34.567,54.168c-0.93,0.5-1.856,0.989-2.795,1.521
			c-24.316,13.827-55.935,42.164-68.485,98.637c-0.536,2.412,0.033,4.937,1.553,6.884c1.519,1.948,3.829,3.116,6.299,3.182
			c0.114,0.003,0.461,0.011,1.024,0.011c5.604,0,32.475-0.783,60.509-14.896c4.082-2.054,5.725-7.03,3.669-11.111
			c-2.054-4.082-7.029-5.726-11.111-3.669c-16.537,8.325-32.859,11.378-43.075,12.491c9.984-34.835,29.176-60.633,57.156-76.775
			c9.114-5.258,17.876-8.671,25.171-10.882c1.334-0.105,2.657-0.254,3.97-0.446c-14.304,32.979-22.33,67.893-22.33,98.157
			c0,5.701,0.281,11.453,0.835,17.096c0.419,4.273,4.019,7.466,8.225,7.466c0.27,0,0.544-0.013,0.819-0.041
			c4.548-0.447,7.873-4.496,7.425-9.044c-0.502-5.107-0.756-10.315-0.756-15.478c0-32.481,10.095-70.961,27.714-105.955
			c8.835-5.271,16.286-12.808,21.469-22.037c1.246,0.1,2.492,0.15,3.736,0.15c15.31,0,29.547-7.436,38.332-19.722
			c1.793,0.008,3.589-0.111,5.355-0.373c13.86,19.177,35.761,30.453,59.714,30.453c23.986,0,45.896-11.297,59.753-30.512
			c1.75,0.279,3.526,0.425,5.318,0.434c8.785,12.284,23.029,19.722,38.329,19.722c1.243,0,2.49-0.05,3.737-0.15
			c5.188,9.238,12.649,16.781,21.496,22.053c17.604,34.99,27.691,73.465,27.691,105.937c0,86.192-70.122,156.314-156.314,156.314
			c-34.435,0-67.092-10.974-94.44-31.737c-26.476-20.099-46.2-48.627-55.539-80.328c-1.291-4.384-5.89-6.891-10.276-5.599
			c-4.383,1.291-6.89,5.891-5.599,10.276c10.33,35.064,32.138,66.612,61.407,88.832c30.251,22.965,66.367,35.104,104.447,35.104
			c95.317,0,172.863-77.546,172.863-172.863c0-5.281-0.25-10.707-0.729-16.237c32.38,22.228,67.938,23.37,74.799,23.37
			c0.584,0,0.961-0.008,1.109-0.012c2.469-0.067,4.779-1.235,6.299-3.182C511.769,334.184,512.339,331.658,511.802,329.247z
			 M424.617,291.916c-3.732-19.092-9.895-38.808-18.162-57.879c1.397,0.204,2.807,0.361,4.228,0.467
			c7.281,2.212,16.013,5.618,25.095,10.858c27.976,16.14,47.167,41.932,57.152,76.76
			C477.429,320.409,447.881,314.201,424.617,291.916z"/>
	</g>
</g>
<g>
	<g>
		<circle cx="282.217" cy="430.332" r="8.275"/>
	</g>
</g>
<g>
	<g>
		<circle cx="229.58" cy="430.332" r="8.275"/>
	</g>
</g>
<g>
</g>
<g>
</g>
<g>
</g>
<g>
</g>
<g>
</g>
<g>
</g>
<g>
</g>
<g>
</g>
<g>
</g>
<g>
</g>
<g>
</g>
<g>
</g>
<g>
</g>
<g>
</g>
<g>
</g>
</svg>
